<!--?xml version="1.0" standalone="no"?-->

<svg xmlns="http://www.w3.org/2000/svg" width="296.000000pt" height="300.000000pt" viewBox="0 0 296.000000 300.000000" preserveAspectRatio="xMidYMid meet">
<g transform="translate(0.000000,300.000000) scale(0.100000,-0.100000)" fill="#383838" stroke="none">
<path style="position: relative;" class="node" id="node1" d="M810 2987 c-319 -75 -533 -313 -594 -660 -5 -28 -14 -41 -34 -50 -46
-19 -139 -85 -161 -113 -47 -60 -13 -107 106 -145 52 -16 78 -30 83 -44 5 -11
16 -65 25 -120 29 -170 80 -372 114 -450 52 -118 112 -235 158 -305 124 -189
374 -389 570 -456 26 -9 107 -31 178 -50 l130 -32 -4 -38 c-4 -50 -45 -142
-78 -176 -32 -33 -95 -54 -186 -62 -69 -5 -163 -40 -199 -73 -10 -9 -18 -27
-18 -41 0 -22 3 -24 28 -17 15 3 60 9 101 12 l74 5 -47 -44 c-28 -28 -46 -53
-46 -67 0 -15 5 -21 13 -18 8 3 45 8 83 12 38 4 89 14 114 23 50 18 139 71
159 96 15 18 21 19 39 8 9 -6 10 -16 3 -34 -5 -14 -6 -31 -1 -39 8 -12 14 -12
42 0 37 15 147 35 154 28 2 -2 -11 -21 -30 -42 -32 -34 -53 -81 -43 -92 3 -2
51 7 108 21 111 28 175 63 248 136 40 41 40 41 71 25 72 -37 171 -25 178 21 3
18 -4 22 -49 27 -62 8 -75 18 -90 67 -9 31 -8 52 6 112 10 40 20 78 24 83 3 6
13 34 21 64 l15 54 90 32 c198 68 319 152 461 320 72 84 116 155 169 270 25
55 73 153 105 218 69 135 77 183 36 214 -21 17 -24 27 -23 74 2 52 1 55 -30
69 -22 10 -33 22 -33 38 0 12 -9 31 -21 43 -18 18 -28 20 -75 14 -49 -6 -57
-4 -96 24 -24 17 -89 79 -144 139 -185 196 -392 309 -659 357 -58 11 -88 22
-115 43 -35 29 -119 130 -120 145 0 5 -14 29 -32 55 -104 152 -216 241 -384
302 -74 28 -306 37 -394 17z m387 -50 c40 -13 98 -39 130 -58 72 -42 199 -168
238 -234 53 -92 124 -182 165 -209 27 -18 69 -32 121 -41 43 -8 119 -28 169
-45 209 -72 312 -139 490 -321 74 -76 148 -143 163 -149 16 -5 52 -10 82 -10
56 0 65 -8 65 -56 0 -19 5 -24 24 -24 36 0 46 -20 40 -76 -6 -46 -4 -50 20
-63 40 -22 33 -56 -38 -198 -36 -71 -84 -168 -107 -218 -109 -233 -294 -427
-499 -523 -167 -77 -522 -140 -725 -128 -188 11 -428 69 -550 133 -94 49 -230
151 -313 234 -137 137 -235 304 -325 559 -31 85 -78 303 -93 428 -6 49 -5 52
15 52 12 0 37 15 57 33 31 28 36 39 41 94 5 54 2 67 -20 106 -16 27 -40 51
-62 61 -44 21 -45 43 -6 163 38 114 48 136 96 208 55 83 90 120 160 170 99 70
203 115 313 135 88 16 269 4 349 -23z m-918 -682 c71 -36 84 -174 22 -222 -25
-20 -86 -15 -163 12 -120 42 -134 71 -66 130 39 33 150 95 170 95 5 0 22 -7
37 -15z m1761 -1660 c0 -9 -9 -41 -19 -73 -42 -125 -52 -180 -41 -222 13 -46
44 -79 83 -87 15 -3 30 -10 33 -14 9 -15 -64 -10 -103 6 -53 22 -69 19 -105
-22 -52 -57 -140 -109 -217 -128 -39 -9 -75 -15 -81 -13 -19 6 25 53 89 93 88
56 92 89 6 45 -27 -14 -59 -20 -102 -20 -35 0 -79 -7 -98 -14 -44 -19 -45 -5
-2 27 49 37 124 67 193 76 141 20 210 94 235 253 l12 78 41 11 c22 5 46 12 51
14 20 7 25 5 25 -10z m-149 -74 c-6 -22 -16 -60 -22 -83 -23 -89 -85 -143
-180 -159 -35 -6 -90 -20 -123 -32 -58 -20 -59 -20 -73 -1 -24 31 -11 111 32
207 l39 86 75 6 c42 4 114 13 161 20 47 6 89 9 93 5 5 -4 4 -26 -2 -49z m-359
23 c4 -3 0 -17 -7 -32 -70 -132 -89 -218 -61 -273 20 -40 6 -54 -34 -34 -29
15 -27 16 -121 -51 -61 -43 -121 -64 -198 -71 l-66 -6 23 25 c12 14 47 37 77
53 54 27 83 51 73 61 -3 2 -18 -1 -34 -8 -16 -6 -72 -12 -124 -13 -52 0 -103
-4 -112 -9 -10 -5 -18 -4 -18 1 0 23 110 63 213 77 59 9 120 22 137 31 55 28
115 133 127 222 l6 44 56 -7 c31 -3 59 -8 63 -10z"></path>
<path style="position: relative;" class="node" id="node2" d="M657 2395 c-64 -44 -85 -130 -47 -193 78 -127 270 -76 270 73 0 116
-127 184 -223 120z m148 -27 c53 -42 66 -116 27 -163 -27 -32 -65 -53 -92 -50
-14 1 -30 3 -37 4 -26 3 -73 54 -79 86 -8 45 11 100 44 124 37 28 101 27 137
-1z"></path>
<path style="position: relative;" class="node" id="node3" d="M1880 1821 c0 -5 21 -26 46 -47 25 -21 52 -50 60 -66 8 -15 20 -28
28 -28 13 0 156 -91 188 -120 9 -8 46 -33 82 -55 36 -22 65 -43 66 -46 1 -22
-43 -51 -95 -65 -77 -19 -95 -36 -71 -63 9 -10 37 -24 61 -30 53 -13 60 -23
37 -50 -20 -26 -75 -40 -150 -41 -75 0 -80 -21 -18 -75 l48 -41 -30 -26 c-69
-58 -208 -63 -302 -12 -29 16 -55 34 -57 41 -3 7 -12 13 -20 13 -22 0 -11 -74
16 -111 12 -16 21 -30 21 -33 0 -10 -104 -36 -145 -36 -59 0 -179 35 -263 77
-92 46 -185 130 -219 197 -37 71 -63 211 -63 334 0 79 -3 103 -12 99 -10 -3
-12 -31 -11 -103 4 -147 21 -261 49 -323 51 -110 191 -220 355 -277 101 -36
234 -38 297 -5 47 24 54 47 22 76 -23 21 -29 55 -6 36 24 -20 128 -51 174 -51
93 0 185 41 214 94 9 17 4 25 -32 56 l-43 37 65 6 c82 8 133 31 149 69 15 38
-5 62 -67 77 -25 6 -43 15 -40 20 3 4 30 13 61 20 43 10 61 20 80 45 37 49 33
67 -22 96 -27 14 -79 48 -117 76 -38 29 -95 67 -125 85 -31 19 -85 62 -120 96
-59 58 -91 77 -91 54z"></path>
</g>
<g transform="translate(0.000000,300.000000) scale(0.100000,-0.100000)" fill="#FFFFFF" stroke="none">


<path style="position: relative;" class="node" id="node6" d="M848 2960 c-110 -20 -214 -65 -313 -135 -70 -50 -105 -87 -160 -170
-48 -72 -58 -94 -96 -208 -39 -120 -38 -142 6 -163 22 -10 46 -34 62 -61 22
-39 25 -52 20 -106 -5 -55 -10 -66 -41 -94 -20 -18 -45 -33 -57 -33 -20 0 -21
-3 -15 -52 15 -125 62 -343 93 -428 90 -255 188 -422 325 -559 83 -83 219
-185 313 -234 122 -64 362 -122 550 -133 203 -12 558 51 725 128 205 96 390
290 499 523 23 50 71 147 107 218 71 142 78 176 38 198 -24 13 -26 17 -20 63
6 56 -4 76 -40 76 -19 0 -24 5 -24 24 0 48 -9 56 -65 56 -30 0 -66 5 -82 10
-15 6 -89 73 -163 149 -178 182 -281 249 -490 321 -50 17 -126 37 -169 45 -52
9 -94 23 -121 41 -41 27 -112 117 -165 209 -39 66 -166 192 -238 234 -99 58
-187 82 -317 86 -63 2 -136 0 -162 -5z m-48 -555 c77 -40 105 -142 58 -212
-60 -87 -192 -82 -248 9 -72 118 67 266 190 203z m1171 -638 c35 -34 89 -77
120 -96 30 -18 87 -56 125 -85 38 -28 90 -62 117 -76 55 -29 59 -47 22 -96
-19 -25 -37 -35 -80 -45 -31 -7 -58 -16 -61 -20 -3 -5 15 -14 40 -20 62 -15
82 -39 67 -77 -16 -38 -67 -61 -149 -69 l-65 -6 43 -37 c36 -31 41 -39 32 -56
-29 -53 -121 -94 -214 -94 -46 0 -150 31 -174 51 -23 19 -17 -15 6 -36 32 -29
25 -52 -22 -76 -63 -33 -196 -31 -297 5 -164 57 -304 167 -355 277 -28 62 -45
176 -49 323 -1 72 1 100 11 103 9 4 12 -20 12 -99 0 -123 26 -263 63 -334 34
-67 127 -151 219 -197 84 -42 204 -77 263 -77 41 0 145 26 145 36 0 3 -9 17
-21 33 -27 37 -38 111 -16 111 8 0 17 -6 20 -13 2 -7 28 -25 57 -41 94 -51
233 -46 302 12 l30 26 -48 41 c-62 54 -57 75 18 75 75 1 130 15 150 41 23 27
16 37 -37 50 -24 6 -52 20 -61 30 -24 27 -6 44 71 63 52 14 96 43 95 65 -1 3
-30 24 -66 46 -36 22 -73 47 -82 55 -32 29 -175 120 -188 120 -8 0 -20 13 -28
28 -8 16 -35 45 -60 66 -25 21 -46 42 -46 47 0 23 32 4 91 -54z"></path>
<path style="position: relative;" class="node" id="node7" d="M668 2369 c-33 -24 -52 -79 -44 -124 6 -32 53 -83 79 -86 7 -1 23 -3
37 -4 27 -3 65 18 92 50 39 47 26 121 -27 163 -36 28 -100 29 -137 1z"></path>
<path style="position: relative;" class="node" id="node8" d="M174 2240 c-73 -36 -144 -95 -144 -119 0 -28 30 -49 108 -76 77 -27
138 -32 163 -12 62 48 49 186 -22 222 -37 20 -36 20 -105 -15z"></path>


<path style="position: relative;" class="node" id="node11" d="M2015 605 c-5 -2 -29 -9 -51 -14 l-41 -11 -12 -78 c-25 -159 -94
-233 -235 -253 -69 -9 -144 -39 -193 -76 -43 -32 -42 -46 2 -27 19 7 63 14 98
14 43 0 75 6 102 20 86 44 82 11 -6 -45 -64 -40 -108 -87 -89 -93 6 -2 42 4
81 13 77 19 165 71 217 128 36 41 52 44 105 22 39 -16 112 -21 103 -6 -3 4
-18 11 -33 14 -39 8 -70 41 -83 87 -11 42 -1 97 41 222 26 80 25 94 -6 83z"></path>

<path style="position: relative;" class="node" id="node13" d="M1407 517 c-12 -89 -72 -194 -127 -222 -17 -9 -78 -22 -137 -31 -103
-14 -213 -54 -213 -77 0 -5 8 -6 18 -1 9 5 60 9 112 9 52 1 108 7 124 13 16 7
31 10 34 8 10 -10 -19 -34 -73 -61 -30 -16 -65 -39 -77 -53 l-23 -25 66 6 c77
7 137 28 198 71 94 67 92 66 121 51 40 -20 54 -6 34 34 -28 55 -9 141 61 273
17 33 15 34 -56 42 l-56 7 -6 -44z"></path>
</g>
</svg>